<svg width="25" height="19" viewBox="0 0 25 19" fill="none" xmlns="http://www.w3.org/2000/svg">
<path d="M21.1634 1.55511C19.5697 0.836382 17.8614 0.305148 16.075 0.003073C16.0591 1.88347e-05 16.0427 0.00198705 16.0279 0.00870548C16.0132 0.0154239 16.0009 0.0265602 15.9927 0.0405719C15.774 0.424936 15.5303 0.925963 15.3594 1.32178C13.4648 1.03871 11.5386 1.03871 9.64397 1.32178C9.4537 0.883111 9.23914 0.455377 9.00128 0.0405719C8.99322 0.0263877 8.98102 0.0149995 8.96632 0.00792716C8.95162 0.000854834 8.93511 -0.00156539 8.91899 0.000989631C7.13363 0.303064 5.42534 0.834299 3.8306 1.55407C3.81688 1.55982 3.80525 1.56964 3.79727 1.58219C0.555693 6.34768 -0.332823 10.9955 0.103623 15.5849C0.104837 15.5962 0.108326 15.607 0.113877 15.6169C0.119429 15.6267 0.126926 15.6353 0.135913 15.6422C2.02793 17.0197 4.13823 18.069 6.37844 18.7463C6.39406 18.7511 6.41076 18.7511 6.42637 18.7462C6.44198 18.7414 6.45577 18.732 6.46594 18.7192C6.948 18.0745 7.37518 17.3905 7.74299 16.6745C7.74809 16.6647 7.75103 16.6539 7.75161 16.6429C7.75219 16.6319 7.7504 16.6208 7.74635 16.6106C7.7423 16.6003 7.73609 16.591 7.72814 16.5833C7.72019 16.5757 7.71069 16.5698 7.70028 16.5661C7.02739 16.3127 6.3754 16.0069 5.75033 15.6516C5.7391 15.6452 5.72964 15.6361 5.72279 15.6251C5.71594 15.6141 5.71193 15.6016 5.7111 15.5887C5.71027 15.5758 5.71266 15.5629 5.71806 15.5512C5.72345 15.5394 5.73168 15.5292 5.742 15.5214C5.87325 15.4245 6.00449 15.3235 6.12949 15.2224C6.14074 15.2133 6.15429 15.2076 6.16864 15.2057C6.18298 15.2039 6.19756 15.2061 6.21074 15.212C10.3012 17.0495 14.7313 17.0495 18.7739 15.212C18.7871 15.2057 18.8019 15.2032 18.8164 15.2049C18.831 15.2066 18.8447 15.2123 18.8562 15.2214C18.9812 15.3235 19.1114 15.4245 19.2437 15.5214C19.2541 15.529 19.2625 15.5391 19.268 15.5508C19.2736 15.5624 19.2762 15.5753 19.2756 15.5882C19.275 15.6011 19.2712 15.6136 19.2645 15.6247C19.2578 15.6357 19.2485 15.645 19.2374 15.6516C18.6145 16.0099 17.9666 16.313 17.2865 16.5651C17.276 16.5689 17.2665 16.5749 17.2585 16.5826C17.2506 16.5904 17.2444 16.5998 17.2403 16.6101C17.2363 16.6205 17.2345 16.6316 17.2351 16.6427C17.2357 16.6538 17.2386 16.6646 17.2438 16.6745C17.6187 17.3901 18.0479 18.0713 18.5198 18.7182C18.5296 18.7314 18.5432 18.7414 18.5589 18.7466C18.5746 18.7518 18.5914 18.7521 18.6073 18.7473C20.8513 18.072 22.965 17.0221 24.8592 15.6422C24.8684 15.6357 24.8762 15.6274 24.8819 15.6177C24.8877 15.608 24.8913 15.5972 24.8925 15.586C25.4133 10.2799 24.0196 5.66958 21.1957 1.58428C21.1888 1.571 21.1773 1.56065 21.1634 1.55511ZM8.35443 12.7902C7.12321 12.7902 6.10762 11.6767 6.10762 10.3111C6.10762 8.94448 7.10342 7.83201 8.35443 7.83201C9.61481 7.83201 10.621 8.95386 10.6012 10.3111C10.6012 11.6777 9.60543 12.7902 8.35443 12.7902ZM16.6615 12.7902C15.4292 12.7902 14.4147 11.6767 14.4147 10.3111C14.4147 8.94448 15.4094 7.83201 16.6615 7.83201C17.9219 7.83201 18.9281 8.95386 18.9083 10.3111C18.9083 11.6777 17.9229 12.7902 16.6615 12.7902Z" fill="black"/>
</svg>
