<svg width="20" height="16" viewBox="0 0 20 16" fill="none" xmlns="http://www.w3.org/2000/svg">
<path d="M16.9315 1.24414C15.6564 0.669134 14.2898 0.244128 12.8606 0.0024585C12.8478 1.50684e-05 12.8347 0.00158971 12.8229 0.00696467C12.8111 0.0123396 12.8012 0.021249 12.7947 0.0324589C12.6197 0.339963 12.4247 0.740802 12.2881 1.05747C10.7723 0.831 9.23128 0.831 7.7155 1.05747C7.56328 0.706518 7.39162 0.364317 7.20133 0.0324589C7.19488 0.021111 7.18512 0.0120001 7.17336 0.006342C7.16159 0.000683896 7.14839 -0.00125236 7.13549 0.000791738C5.70714 0.242462 4.34046 0.667467 3.06461 1.24331C3.05363 1.24791 3.04433 1.25576 3.03794 1.26581C0.444573 5.07836 -0.26627 8.79674 0.0829016 12.4685C0.0838732 12.4774 0.0866646 12.4861 0.0911058 12.494C0.095547 12.5019 0.101545 12.5088 0.108735 12.5143C1.62242 13.6163 3.31072 14.4558 5.10297 14.9977C5.11546 15.0015 5.12882 15.0015 5.14131 14.9976C5.1538 14.9938 5.16483 14.9862 5.17297 14.976C5.55864 14.4602 5.90039 13.913 6.19465 13.3401C6.19873 13.3323 6.20109 13.3237 6.20155 13.3149C6.20201 13.306 6.20058 13.2972 6.19734 13.289C6.1941 13.2808 6.18913 13.2734 6.18277 13.2672C6.17641 13.2611 6.16881 13.2564 6.16048 13.2535C5.62214 13.0507 5.10054 12.8061 4.60046 12.5218C4.59148 12.5167 4.5839 12.5094 4.57842 12.5006C4.57295 12.4918 4.56973 12.4818 4.56907 12.4715C4.56841 12.4612 4.57032 12.4508 4.57464 12.4414C4.57895 12.432 4.58554 12.4239 4.59379 12.4176C4.6988 12.3401 4.8038 12.2593 4.9038 12.1785C4.9128 12.1712 4.92364 12.1666 4.93512 12.1651C4.9466 12.1636 4.95825 12.1654 4.9688 12.1701C8.24134 13.6401 11.7856 13.6401 15.0198 12.1701C15.0303 12.1651 15.0421 12.1631 15.0538 12.1644C15.0654 12.1658 15.0764 12.1703 15.0856 12.1776C15.1856 12.2593 15.2898 12.3401 15.3956 12.4176C15.4039 12.4237 15.4106 12.4318 15.4151 12.4411C15.4195 12.4504 15.4216 12.4607 15.4211 12.471C15.4206 12.4814 15.4176 12.4914 15.4122 12.5003C15.4069 12.5091 15.3995 12.5165 15.3906 12.5218C14.8923 12.8085 14.3739 13.051 13.8297 13.2526C13.8214 13.2557 13.8138 13.2604 13.8074 13.2667C13.8011 13.2729 13.7961 13.2804 13.7929 13.2886C13.7896 13.2969 13.7882 13.3058 13.7887 13.3147C13.7891 13.3236 13.7915 13.3322 13.7956 13.3401C14.0956 13.9126 14.4389 14.4576 14.8164 14.9752C14.8243 14.9858 14.8352 14.9937 14.8477 14.9979C14.8603 15.0021 14.8738 15.0023 14.8864 14.9985C16.6817 14.4582 18.3728 13.6183 19.8882 12.5143C19.8956 12.5091 19.9018 12.5024 19.9064 12.4947C19.911 12.4869 19.9138 12.4783 19.9148 12.4693C20.3315 8.22423 19.2165 4.53585 16.9573 1.26748C16.9518 1.25685 16.9426 1.24857 16.9315 1.24414ZM6.68382 10.2326C5.69881 10.2326 4.8863 9.34175 4.8863 8.24923C4.8863 7.15589 5.68298 6.26587 6.68382 6.26587C7.69217 6.26587 8.49718 7.16339 8.48135 8.24923C8.48135 9.34258 7.68467 10.2326 6.68382 10.2326ZM13.3297 10.2326C12.3439 10.2326 11.5322 9.34175 11.5322 8.24923C11.5322 7.15589 12.3281 6.26587 13.3297 6.26587C14.3381 6.26587 15.1431 7.16339 15.1273 8.24923C15.1273 9.34258 14.3389 10.2326 13.3297 10.2326Z" fill="#929292"/>
</svg>
