<svg width="16" height="16" viewBox="0 0 16 16" fill="none" xmlns="http://www.w3.org/2000/svg">
<path d="M7.53658 3.89523C5.39609 3.89523 3.66862 5.72847 3.66862 8C3.66862 10.2715 5.39609 12.1048 7.53658 12.1048C9.67706 12.1048 11.4045 10.2715 11.4045 8C11.4045 5.72847 9.67706 3.89523 7.53658 3.89523ZM7.53658 10.6678C6.15233 10.6678 5.02269 9.46899 5.02269 8C5.02269 6.53101 6.15233 5.3322 7.53658 5.3322C8.92082 5.3322 10.0505 6.53101 10.0505 8C10.0505 9.46899 8.92082 10.6678 7.53658 10.6678ZM11.563 2.77047C11.0632 2.77047 10.6596 3.19876 10.6596 3.72911C10.6596 4.25947 11.0632 4.68776 11.563 4.68776C12.0627 4.68776 12.4663 4.26147 12.4663 3.72911C12.4664 3.60318 12.4432 3.47845 12.3978 3.36207C12.3525 3.24569 12.286 3.13995 12.202 3.0509C12.1181 2.96185 12.0185 2.89124 11.9088 2.84312C11.7992 2.795 11.6816 2.77031 11.563 2.77047ZM15.0764 8C15.0764 6.89525 15.0858 5.80051 15.0273 4.69777C14.9689 3.4169 14.6935 2.28014 13.8109 1.3435C12.9264 0.404868 11.8571 0.114672 10.6502 0.0526304C9.60917 -0.0094115 8.57759 0.000595291 7.53846 0.000595291C6.49745 0.000595291 5.46587 -0.0094115 4.42674 0.0526304C3.21977 0.114672 2.14859 0.40687 1.26599 1.3435C0.381511 2.28214 0.108057 3.4169 0.049594 4.69777C-0.00886853 5.80252 0.000560947 6.89725 0.000560947 8C0.000560947 9.10275 -0.00886853 10.1995 0.049594 11.3022C0.108057 12.5831 0.383397 13.7199 1.26599 14.6565C2.15048 15.5951 3.21977 15.8853 4.42674 15.9474C5.46775 16.0094 6.49934 15.9994 7.53846 15.9994C8.57947 15.9994 9.61105 16.0094 10.6502 15.9474C11.8571 15.8853 12.9283 15.5931 13.8109 14.6565C14.6954 13.7179 14.9689 12.5831 15.0273 11.3022C15.0877 10.1995 15.0764 9.10475 15.0764 8ZM13.4168 12.7192C13.2791 13.0834 13.1132 13.3556 12.8472 13.6358C12.5813 13.918 12.3267 14.0941 11.9835 14.2402C10.9915 14.6585 8.63605 14.5644 7.53658 14.5644C6.4371 14.5644 4.07974 14.6585 3.08776 14.2422C2.74453 14.0961 2.48805 13.92 2.22402 13.6378C1.95811 13.3556 1.79216 13.0854 1.65449 12.7212C1.26222 11.6665 1.35086 9.16679 1.35086 8C1.35086 6.83321 1.26222 4.33152 1.65449 3.27881C1.79216 2.91456 1.95811 2.64238 2.22402 2.36219C2.48994 2.082 2.74453 1.90388 3.08776 1.75778C4.07974 1.3415 6.4371 1.43556 7.53658 1.43556C8.63605 1.43556 10.9934 1.3415 11.9854 1.75778C12.3286 1.90388 12.5851 2.08 12.8491 2.36219C13.115 2.64438 13.281 2.91456 13.4187 3.27881C13.8109 4.33152 13.7223 6.83321 13.7223 8C13.7223 9.16679 13.8109 11.6665 13.4168 12.7192Z" fill="#929292"/>
</svg>
