<svg width="12" height="12" viewBox="0 0 12 12" fill="none" xmlns="http://www.w3.org/2000/svg">
<path d="M6.39708 5.16718C5.95524 4.72552 5.35609 4.47742 4.73136 4.47742C4.10663 4.47742 3.50747 4.72552 3.06563 5.16718L1.39937 6.83291C0.957518 7.27476 0.70929 7.87403 0.70929 8.4989C0.70929 9.12377 0.957518 9.72305 1.39937 10.1649C1.84122 10.6067 2.44049 10.855 3.06536 10.855C3.69023 10.855 4.28951 10.6067 4.73136 10.1649L5.56422 9.33204" stroke="#929292" stroke-width="1.33333" stroke-linecap="round" stroke-linejoin="round"/>
<path d="M4.73138 6.83291C5.17323 7.27457 5.77238 7.52267 6.39711 7.52267C7.02184 7.52267 7.62099 7.27457 8.06284 6.83291L9.7291 5.16718C10.171 4.72533 10.4192 4.12605 10.4192 3.50118C10.4192 2.87632 10.171 2.27704 9.7291 1.83519C9.28725 1.39334 8.68798 1.14511 8.06311 1.14511C7.43824 1.14511 6.83896 1.39334 6.39711 1.83519L5.56425 2.66805" stroke="#929292" stroke-width="1.33333" stroke-linecap="round" stroke-linejoin="round"/>
</svg>
