<svg width="171" height="34" viewBox="0 0 171 34" fill="none" xmlns="http://www.w3.org/2000/svg">
<path d="M153.848 7.35547L160.709 18.9332V23.65H164.139V18.9332L171 7.35547H167.141L162.424 15.0739L157.707 7.35547H153.848Z" fill="black"/>
<path fill-rule="evenodd" clip-rule="evenodd" d="M81.3799 7.78516V23.6509H84.8103V20.6493H86.0967L88.6696 23.6509H93.3864L89.5272 19.7917C92.9576 18.9341 95.5304 12.0732 89.956 8.64276C89.534 8.38308 88.2407 7.78514 87.3831 7.78516H81.3799ZM84.8105 10.7872V17.648H86.9546C88.098 17.5051 89.9562 16.7905 89.9562 14.2176C89.9562 11.6448 88.241 10.7872 84.8105 10.7872Z" fill="black"/>
<path d="M68.0869 10.7868V7.78516H79.6646V10.7868H75.3766V23.6509H71.9462V10.7868H68.0869Z" fill="black"/>
<path d="M57.3662 23.6509V7.78516H65.9423V10.7868H60.7966V13.7884H66.7999V16.79H60.7966V20.6493H67.2287V23.6509H57.3662Z" fill="black"/>
<path d="M38.0703 23.6509V7.78516L46.2176 13.7884L54.3649 7.78516V23.6509H51.3632V14.2172L46.2176 18.0765L41.0719 14.2172V23.6509H38.0703Z" fill="black"/>
<path fill-rule="evenodd" clip-rule="evenodd" d="M113.111 7.78516V23.6509H116.113V21.0781H118.686C125.547 21.0781 127.691 9.50037 119.115 7.78516H113.111ZM116.113 10.7871V18.0768H118.686C120.83 18.0768 122.117 15.9328 121.688 13.7887C121.259 11.6447 120.401 10.7871 116.113 10.7871Z" fill="black"/>
<path fill-rule="evenodd" clip-rule="evenodd" d="M102.819 23.65C107.319 23.65 110.966 20.0024 110.966 15.5027C110.966 11.0031 107.319 7.35547 102.819 7.35547C98.3195 7.35547 94.6719 11.0031 94.6719 15.5027C94.6719 20.0024 98.3195 23.65 102.819 23.65ZM102.819 20.2188C105.424 20.2188 107.536 18.107 107.536 15.502C107.536 12.897 105.424 10.7852 102.819 10.7852C100.214 10.7852 98.1025 12.897 98.1025 15.502C98.1025 18.107 100.214 20.2188 102.819 20.2188Z" fill="black"/>
<path fill-rule="evenodd" clip-rule="evenodd" d="M134.552 23.65C139.051 23.65 142.699 20.0024 142.699 15.5027C142.699 11.0031 139.051 7.35547 134.552 7.35547C130.052 7.35547 126.404 11.0031 126.404 15.5027C126.404 20.0024 130.052 23.65 134.552 23.65ZM134.552 20.2188C137.157 20.2188 139.269 18.107 139.269 15.502C139.269 12.897 137.157 10.7852 134.552 10.7852C131.947 10.7852 129.835 12.897 129.835 15.502C129.835 18.107 131.947 20.2188 134.552 20.2188Z" fill="black"/>
<path d="M144.414 23.65V7.35547H147.844V20.6484H153.848V23.65H144.414Z" fill="black"/>
<circle cx="16.5518" cy="16.5518" r="16.5518" fill="#0072BA"/>
<path d="M16.5523 7.12695L8.27637 15.2304L9.85834 14.4833V22.6553C9.85834 23.2523 10.3423 23.7362 10.9392 23.7362H22.1623C22.7592 23.7362 23.2431 23.2523 23.2431 22.6553V14.4833L24.7707 15.2304L16.5523 7.12695Z" stroke="white" stroke-width="1.89152" stroke-linejoin="round"/>
<circle cx="16.5518" cy="16.5518" r="16.5518" fill="#0072BA"/>
<path d="M16.5523 7.12695L8.27637 15.2304L9.85834 14.4833V22.3569C9.85834 23.1187 10.4759 23.7362 11.2377 23.7362H21.8638C22.6256 23.7362 23.2431 23.1187 23.2431 22.3569V14.4833L24.7707 15.2304L16.5523 7.12695Z" stroke="white" stroke-width="1.89152" stroke-linejoin="round"/>
</svg>
