<svg width="293" height="293" viewBox="0 0 293 293" fill="none" xmlns="http://www.w3.org/2000/svg">
<circle cx="146.498" cy="146.454" r="145.873" fill="#0072BA"/>
<path d="M90.9317 202.025V109.639C90.9313 108.213 91.3697 106.821 92.1874 105.653C93.0051 104.485 94.1625 103.597 95.5024 103.109L162.68 78.6858C163.205 78.4948 163.768 78.4331 164.322 78.5061C164.875 78.579 165.403 78.7844 165.861 79.1048C166.318 79.4251 166.691 79.8511 166.949 80.3465C167.207 80.8419 167.341 81.3921 167.341 81.9505V116.356L211.214 130.978C212.598 131.439 213.802 132.323 214.654 133.506C215.507 134.69 215.966 136.111 215.966 137.57V202.025H229.858V215.917H77.0391V202.025H90.9317ZM104.824 202.025H153.449V96.8226L104.824 114.508V202.025ZM202.073 202.025V142.578L167.341 130.999V202.025H202.073Z" fill="white"/>
</svg>
