<svg width="31" height="26" viewBox="0 0 31 26" fill="none" xmlns="http://www.w3.org/2000/svg">
<path d="M30.2835 3.73931C29.1838 4.21369 27.9871 4.55509 26.7544 4.68806C28.0342 3.92775 28.9926 2.72659 29.4497 1.30994C28.2488 2.02434 26.9332 2.52528 25.5613 2.79056C24.9879 2.17756 24.2944 1.68922 23.524 1.35596C22.7536 1.02271 21.9229 0.851676 21.0835 0.853531C17.6874 0.853531 14.9561 3.60634 14.9561 6.98447C14.9561 7.45884 15.0136 7.93322 15.1071 8.38962C10.0219 8.12369 5.4866 5.69431 2.47145 1.97478C1.92205 2.91316 1.63415 3.98162 1.6377 5.069C1.6377 7.1965 2.71941 9.07244 4.36895 10.1757C3.39685 10.1374 2.44752 9.87024 1.59816 9.39587V9.47134C1.59816 12.4506 3.7041 14.9195 6.51082 15.4873C5.98383 15.6242 5.44171 15.6942 4.89723 15.6957C4.49832 15.6957 4.12098 15.6562 3.74004 15.6023C4.51629 18.0317 6.77676 19.7962 9.46848 19.8537C7.36254 21.5032 4.72473 22.4735 1.86051 22.4735C1.3466 22.4735 0.872227 22.4556 0.379883 22.3981C3.09676 24.141 6.32035 25.1473 9.79191 25.1473C21.0619 25.1473 27.2288 15.8107 27.2288 7.70681C27.2288 7.44087 27.2288 7.17494 27.2108 6.909C28.4039 6.03572 29.4497 4.954 30.2835 3.73931Z" fill="black"/>
</svg>
