<svg width="17" height="14" viewBox="0 0 17 14" fill="none" xmlns="http://www.w3.org/2000/svg">
<path d="M16.0591 2.11302C15.4788 2.36335 14.8473 2.54351 14.1968 2.61367C14.8721 2.21246 15.3779 1.57862 15.6191 0.83106C14.9854 1.20804 14.2912 1.47239 13.5672 1.61237C13.2646 1.2889 12.8987 1.03121 12.4922 0.855348C12.0856 0.679491 11.6472 0.589239 11.2043 0.590218C9.41221 0.590218 7.97095 2.04286 7.97095 3.82547C7.97095 4.07579 8.0013 4.32612 8.0506 4.56696C5.3672 4.42663 2.97395 3.14466 1.38288 1.18189C1.09297 1.67707 0.941043 2.24089 0.942913 2.81469C0.942913 3.93736 1.51373 4.92727 2.38417 5.50947C1.87121 5.48926 1.37025 5.34827 0.922053 5.09795V5.13777C0.922053 6.70988 2.03334 8.01271 3.51443 8.31234C3.23634 8.38457 2.95026 8.42153 2.66294 8.42233C2.45244 8.42233 2.25332 8.40147 2.0523 8.37302C2.46193 9.65499 3.65476 10.5861 5.07516 10.6165C3.96387 11.4869 2.57192 11.9989 1.06049 11.9989C0.789305 11.9989 0.538981 11.9894 0.279175 11.9591C1.71285 12.8789 3.41392 13.4098 5.24583 13.4098C11.1929 13.4098 14.4471 8.48301 14.4471 4.20664C14.4471 4.06631 14.4471 3.92598 14.4377 3.78564C15.0673 3.32482 15.6191 2.754 16.0591 2.11302Z" fill="#929292"/>
</svg>
