<svg width="15" height="15" viewBox="0 0 15 15" fill="none" xmlns="http://www.w3.org/2000/svg">
<path d="M10.4714 8.71767C10.3401 8.71767 10.2141 8.76985 10.1212 8.86272C10.0283 8.9556 9.97617 9.08156 9.97617 9.21291C9.97617 9.34425 10.0283 9.47022 10.1212 9.5631C10.2141 9.65597 10.3401 9.70815 10.4714 9.70815H12.1222C12.2536 9.70815 12.3795 9.65597 12.4724 9.5631C12.5653 9.47022 12.6174 9.34425 12.6174 9.21291C12.6174 9.08156 12.5653 8.9556 12.4724 8.86272C12.3795 8.76985 12.2536 8.71767 12.1222 8.71767H10.4714ZM0.071412 1.94942C0.071412 1.46782 0.262727 1.00594 0.603269 0.665402C0.943811 0.32486 1.40569 0.133545 1.88728 0.133545H10.8016C11.2832 0.133545 11.745 0.32486 12.0856 0.665402C12.4261 1.00594 12.6174 1.46782 12.6174 1.94942V2.7801C13.2442 2.82198 13.8317 3.10052 14.2608 3.5593C14.6899 4.01809 14.9286 4.62282 14.9286 5.25101V12.1843C14.9286 12.8411 14.6677 13.4709 14.2033 13.9353C13.7389 14.3996 13.1091 14.6605 12.4524 14.6605H2.55024C1.89352 14.6605 1.26369 14.3996 0.799313 13.9353C0.334937 13.4709 0.0740532 12.8411 0.0740532 12.1843V5.25101H0.071412V2.1145H0.0786754C0.0737821 2.05961 0.0713585 2.00453 0.071412 1.94942ZM12.4524 3.76529H1.06453V12.1843C1.06453 12.5784 1.22106 12.9563 1.49968 13.2349C1.77831 13.5135 2.15621 13.6701 2.55024 13.6701H12.4524C12.8464 13.6701 13.2243 13.5135 13.5029 13.2349C13.7815 12.9563 13.9381 12.5784 13.9381 12.1843V5.25101C13.9381 4.85697 13.7815 4.47907 13.5029 4.20045C13.2243 3.92182 12.8464 3.76529 12.4524 3.76529ZM11.627 1.94942C11.627 1.4938 11.2572 1.12402 10.8016 1.12402H1.88728C1.66838 1.12402 1.45843 1.21098 1.30364 1.36577C1.14885 1.52057 1.06189 1.73051 1.06189 1.94942C1.06189 2.16833 1.14885 2.37827 1.30364 2.53306C1.45843 2.68785 1.66838 2.77481 1.88728 2.77481H11.627V1.94942Z" fill="#0072BA"/>
</svg>
